<?xml version="1.0" standalone="no"?>
<!DOCTYPE svg PUBLIC "-//W3C//DTD SVG 1.1//EN" "http://www.w3.org/Graphics/SVG/1.1/DTD/svg11.dtd" >
<svg xmlns="http://www.w3.org/2000/svg">
<metadata>
This is a custom SVG webfont generated by Font Squirrel.
Copyright   : Created by ShyWedge 1999  httpwelcometoShyFonts
</metadata>
<defs>
<font id="SFFortuneWheelRegular" horiz-adv-x="1331" >
<font-face units-per-em="2048" ascent="1638" descent="-410" />
<missing-glyph horiz-adv-x="819" />
<glyph unicode=" "  horiz-adv-x="819" />
<glyph unicode="&#x09;" horiz-adv-x="819" />
<glyph unicode="&#xa0;" horiz-adv-x="819" />
<glyph unicode="!" horiz-adv-x="716" d="M102 1597h512l-102 -1187h-307zM205 0v307h307v-307h-307z" />
<glyph unicode="&#x22;" horiz-adv-x="901" d="M102 1290v307h308v-307l-205 -205v205h-103zM492 1290v307h307v-307l-205 -205v205h-102z" />
<glyph unicode="'" horiz-adv-x="512" d="M102 1290v307h308v-307l-205 -205v205h-103z" />
<glyph unicode="(" horiz-adv-x="512" d="M51 799q0 236 57.5 421t188.5 377h164q-205 -369 -205 -798q0 -430 205 -799h-164q-131 190 -188.5 378t-57.5 421z" />
<glyph unicode=")" horiz-adv-x="512" d="M51 0q205 369 205 799t-205 798h164q131 -193 188.5 -378t57.5 -420q0 -233 -57.5 -421t-188.5 -378h-164z" />
<glyph unicode="," horiz-adv-x="512" d="M102 0v307h308v-307l-205 -205v205h-103z" />
<glyph unicode="." horiz-adv-x="512" d="M102 0v307h308v-307h-308z" />
<glyph unicode="/" horiz-adv-x="811" d="M0 80l414 1544l397 -106l-414 -1545z" />
<glyph unicode="0" d="M51 512v573q0 225 199 375q182 137 416 137q233 0 415 -137q199 -150 199 -375v-573q0 -225 -199 -375q-182 -137 -415 -137t-416 137q-199 150 -199 375zM604 512q0 -25 18.5 -43t43.5 -18t43 18t18 43v573q0 25 -18.5 43.5t-42.5 18.5q-25 0 -43.5 -18.5t-18.5 -43.5 v-573z" />
<glyph unicode="1" horiz-adv-x="716" d="M102 0v1597h512v-1597h-512z" />
<glyph unicode="2" horiz-adv-x="1382" d="M102 0v573q0 186 132.5 318.5t318.5 132.5h328v123h-779v450h779q186 0 318 -132t132 -318v-123q0 -186 -132 -318.5t-318 -132.5h-328v-122h778v-451h-1229z" />
<glyph unicode="3" horiz-adv-x="1382" d="M102 0v451h676v122h-471v451h471v123h-676v450h779q184 0 317 -133t133 -317v-123q0 -68 -100 -225q100 -172 100 -348q0 -184 -133 -317.5t-317 -133.5h-779z" />
<glyph unicode="4" horiz-adv-x="1433" d="M102 369v1228h512v-778h123v778h512v-778h82v-450h-82v-369h-512v369h-635z" />
<glyph unicode="5" horiz-adv-x="1382" d="M102 0v451h779v122h-779v1024h1229v-450h-778v-123h328q186 0 318 -132t132 -319v-122q0 -186 -132 -318.5t-318 -132.5h-779z" />
<glyph unicode="6" d="M51 451v696q0 186 132 318t319 132h676v-450h-676v-123h327q186 0 318.5 -132t132.5 -319v-122q0 -186 -132 -318.5t-319 -132.5h-327q-186 0 -318.5 132.5t-132.5 318.5zM502 451h327v122h-327v-122z" />
<glyph unicode="7" horiz-adv-x="1228" d="M51 1147v450h1127l-410 -1597h-451l295 1147h-561z" />
<glyph unicode="8" d="M51 451q0 176 101 348q-76 123 -88.5 165t-12.5 183q0 174 119 303t291 145v2h409v-2q172 -16 291 -146t119 -302v-123q0 -68 -100 -225q100 -172 100 -348q0 -174 -119 -303.5t-291 -145.5v-2h-409v2q-172 16 -291 146.5t-119 302.5zM502 451h327v122h-327v-122z M502 1024h327v123h-327v-123z" />
<glyph unicode="9" d="M51 1024v123q0 186 132 318t319 132h327q186 0 318.5 -132t132.5 -318v-696q0 -186 -132 -318.5t-319 -132.5h-675v451h675v122h-327q-186 0 -318.5 132.5t-132.5 318.5zM502 1024h327v123h-327v-123z" />
<glyph unicode=":" horiz-adv-x="512" d="M102 0v307h308v-307h-308zM102 819v307h308v-307h-308z" />
<glyph unicode=";" horiz-adv-x="512" d="M102 0v307h308v-307l-205 -205v205h-103zM102 819v307h308v-307h-308z" />
<glyph unicode="?" d="M51 1085q2 225 199 375q182 137 416 137q233 0 415 -137q199 -150 199 -375q0 -236 -201 -333q-186 -55 -372 -113q-199 -66 -195 -229h-307v8q-2 340 196 473q53 37 129 61l123 41q74 35 74 92q0 25 -18.5 43.5t-42.5 18.5q-53 0 -62 -62h-553zM205 0v307h307v-307h-307 z" />
<glyph unicode="A" horiz-adv-x="1351" d="M-51 0l471 1597h512l471 -1597h-553l-205 717h-123l205 -717h-778z" />
<glyph unicode="B" horiz-adv-x="1423" d="M102 0v1597h676q205 0 358.5 -153.5t153.5 -358.5q0 -133 -96 -227q178 -133 178 -346q0 -205 -153.5 -358.5t-358.5 -153.5h-758z" />
<glyph unicode="C" d="M51 512v573q0 225 199 375q182 137 416 137q233 0 415 -137q199 -147 199 -375v-225h-553v225q0 25 -18.5 43.5t-42.5 18.5q-25 0 -43.5 -18.5t-18.5 -43.5v-573q0 -25 18.5 -43t43.5 -18t43 18t18 43v225h553v-225q0 -225 -199 -375q-182 -137 -415 -137t-416 137 q-199 150 -199 375z" />
<glyph unicode="D" horiz-adv-x="1382" d="M102 0v1597h615q233 0 416 -137q199 -150 198 -375v-573q0 -225 -198 -375q-182 -137 -416 -137h-615zM655 451h62q25 0 43 18t18 43v573q0 25 -18.5 43.5t-42.5 18.5h-62v-696z" />
<glyph unicode="E" d="M102 0v1597h1127v-450h-512v-123h512v-451h-512v-122h512v-451h-1127z" />
<glyph unicode="F" horiz-adv-x="1177" d="M102 0v1597h1024v-450h-512v-123h512v-451h-512v-573h-512z" />
<glyph unicode="G" d="M51 512v573q0 225 199 375q182 137 416 137q233 0 415 -137q199 -150 199 -375v-225h-553v225q0 25 -18.5 43.5t-42.5 18.5q-25 0 -43.5 -18.5t-18.5 -43.5v-573q0 -25 18.5 -43t43.5 -18t43 18t18 43v225h553v-737h-614q-233 0 -416 137q-199 150 -199 375z" />
<glyph unicode="H" horiz-adv-x="1433" d="M102 0v1597h553v-573h123v573h553v-1597h-553v573h-123v-573h-553z" />
<glyph unicode="I" horiz-adv-x="716" d="M102 0v1597h512v-1597h-512z" />
<glyph unicode="J" d="M51 512v225h553v-225q0 -25 18.5 -43t43.5 -18t43 18t18 43v1085h553v-1085q0 -225 -199 -375q-182 -137 -415 -137t-416 137q-199 150 -199 375z" />
<glyph unicode="K" horiz-adv-x="1433" d="M102 0v1597h471v-608l328 608h533l-430 -798l430 -799h-533l-328 608v-608h-471z" />
<glyph unicode="L" horiz-adv-x="1280" d="M102 0v1597h615v-1146h512v-451h-1127z" />
<glyph unicode="M" horiz-adv-x="2027" d="M-51 0l471 1597h553l-471 -1597h-553zM625 0l471 1597h512l471 -1597h-779l205 717h-123l-204 -717h-553z" />
<glyph unicode="N" horiz-adv-x="1433" d="M102 0v1597h590l209 -716h123l-205 716h512v-1597h-594l-205 717h-122l204 -717h-512z" />
<glyph unicode="O" horiz-adv-x="1699" d="M51 799q0 324 237.5 561t561.5 237q326 0 562.5 -236.5t236.5 -561.5q0 -326 -236.5 -562.5t-562.5 -236.5q-324 0 -561.5 237.5t-237.5 561.5zM195 793q2 -137 59 -265l336 152q-25 55 -27 115zM238 1030l344 -131q23 57 63 100l-262 258q-96 -98 -145 -227zM391 332 q98 -96 227 -146l132 344q-57 23 -101 64zM580 1395l151 -336q55 25 115 26l-2 369q-137 -2 -264 -59zM645 799q0 -80 62.5 -142.5t142.5 -62.5t142.5 62.5t62.5 142.5t-62.5 142.5t-142.5 62.5t-142.5 -62.5t-62.5 -142.5zM854 512l2 -369q137 2 264 60l-151 334 q-54 -25 -115 -25zM950 1067q57 -23 101 -63l258 264q-98 96 -228 145zM1055 598l264 -258q96 98 145 227l-346 131q-22 -57 -63 -100zM1112 918q25 -53 25 -115l368 2q-2 135 -59 264z" />
<glyph unicode="P" horiz-adv-x="1484" d="M102 0v1597h820q205 0 358.5 -153.5t153.5 -358.5t-154 -358.5t-358 -153.5h-308v-573h-512z" />
<glyph unicode="Q" horiz-adv-x="1382" d="M51 512v573q0 225 199 375q182 137 416 137q233 0 415 -137q199 -150 199 -375v-532q0 -76 -51 -102h102v-451h-665q-233 0 -416 137q-199 150 -199 375zM604 512q0 -25 18.5 -43t43.5 -18t43 18t18 43v573q0 25 -18.5 43.5t-42.5 18.5q-25 0 -43.5 -18.5t-18.5 -43.5 v-573z" />
<glyph unicode="R" horiz-adv-x="1495" d="M102 0v1597h820q205 0 358.5 -153.5t153.5 -358.5q0 -137 -75 -258.5t-194 -191.5l330 -635h-635l-205 717h-123l205 -717h-635z" />
<glyph unicode="S" d="M51 0v451h778v122h-327q-186 0 -318.5 132.5t-132.5 318.5v123q0 186 132 318t319 132h778v-450h-778v-123h327q186 0 318.5 -132t132.5 -319v-122q0 -186 -132 -318.5t-319 -132.5h-778z" />
<glyph unicode="T" horiz-adv-x="1228" d="M51 1147v450h1127v-450h-308v-1147h-512v1147h-307z" />
<glyph unicode="U" d="M51 512v1085h553v-1085q0 -25 18.5 -43t43.5 -18t43 18t18 43v1085h553v-1085q0 -225 -199 -375q-182 -137 -415 -137t-416 137q-199 150 -199 375z" />
<glyph unicode="V" horiz-adv-x="1351" d="M-51 1597h553l205 -716h122l-204 716h778l-471 -1597h-512z" />
<glyph unicode="W" horiz-adv-x="2027" d="M-51 1597h553l471 -1597h-553zM625 1597h553l204 -716h123l-205 716h779l-471 -1597h-512z" />
<glyph unicode="X" d="M0 0l430 799l-430 798h471l195 -360l194 360h471l-430 -798l430 -799h-471l-194 360l-195 -360h-471z" />
<glyph unicode="Y" horiz-adv-x="1228" d="M-51 1597h471l194 -454l195 454h471l-430 -1003v-594h-471v594z" />
<glyph unicode="Z" horiz-adv-x="1433" d="M102 0v860l717 205v123l-717 -201v610h1229v-860l-717 -205v-122l717 204v-614h-1229z" />
<glyph unicode="[" horiz-adv-x="819" d="M102 0v1597h615v-450h-205v-696h205v-451h-615z" />
<glyph unicode="\" horiz-adv-x="811" d="M0 1518l397 106l414 -1544l-397 -107z" />
<glyph unicode="]" horiz-adv-x="819" d="M102 0v451h205v696h-205v450h615v-1597h-615z" />
<glyph unicode="a" horiz-adv-x="1351" d="M-51 0l471 1597h512l471 -1597h-553l-205 717h-123l205 -717h-778z" />
<glyph unicode="b" horiz-adv-x="1423" d="M102 0v1597h676q205 0 358.5 -153.5t153.5 -358.5q0 -133 -96 -227q178 -133 178 -346q0 -205 -153.5 -358.5t-358.5 -153.5h-758z" />
<glyph unicode="c" d="M51 512v573q0 225 199 375q182 137 416 137q233 0 415 -137q199 -147 199 -375v-225h-553v225q0 25 -18.5 43.5t-42.5 18.5q-25 0 -43.5 -18.5t-18.5 -43.5v-573q0 -25 18.5 -43t43.5 -18t43 18t18 43v225h553v-225q0 -225 -199 -375q-182 -137 -415 -137t-416 137 q-199 150 -199 375z" />
<glyph unicode="d" horiz-adv-x="1382" d="M102 0v1597h615q233 0 416 -137q199 -150 198 -375v-573q0 -225 -198 -375q-182 -137 -416 -137h-615zM655 451h62q25 0 43 18t18 43v573q0 25 -18.5 43.5t-42.5 18.5h-62v-696z" />
<glyph unicode="e" d="M102 0v1597h1127v-450h-512v-123h512v-451h-512v-122h512v-451h-1127z" />
<glyph unicode="f" horiz-adv-x="1177" d="M102 0v1597h1024v-450h-512v-123h512v-451h-512v-573h-512z" />
<glyph unicode="g" d="M51 512v573q0 225 199 375q182 137 416 137q233 0 415 -137q199 -150 199 -375v-225h-553v225q0 25 -18.5 43.5t-42.5 18.5q-25 0 -43.5 -18.5t-18.5 -43.5v-573q0 -25 18.5 -43t43.5 -18t43 18t18 43v225h553v-737h-614q-233 0 -416 137q-199 150 -199 375z" />
<glyph unicode="h" horiz-adv-x="1433" d="M102 0v1597h553v-573h123v573h553v-1597h-553v573h-123v-573h-553z" />
<glyph unicode="i" horiz-adv-x="716" d="M102 0v1597h512v-1597h-512z" />
<glyph unicode="j" d="M51 512v225h553v-225q0 -25 18.5 -43t43.5 -18t43 18t18 43v1085h553v-1085q0 -225 -199 -375q-182 -137 -415 -137t-416 137q-199 150 -199 375z" />
<glyph unicode="k" horiz-adv-x="1433" d="M102 0v1597h471v-608l328 608h533l-430 -798l430 -799h-533l-328 608v-608h-471z" />
<glyph unicode="l" horiz-adv-x="1280" d="M102 0v1597h615v-1146h512v-451h-1127z" />
<glyph unicode="m" horiz-adv-x="2027" d="M-51 0l471 1597h553l-471 -1597h-553zM625 0l471 1597h512l471 -1597h-779l205 717h-123l-204 -717h-553z" />
<glyph unicode="n" horiz-adv-x="1433" d="M102 0v1597h590l209 -716h123l-205 716h512v-1597h-594l-205 717h-122l204 -717h-512z" />
<glyph unicode="o" d="M51 512v573q0 225 199 375q182 137 416 137q233 0 415 -137q199 -150 199 -375v-573q0 -225 -199 -375q-182 -137 -415 -137t-416 137q-199 148 -199 375zM604 512q0 -25 18.5 -43t43.5 -18t43 18t18 43v573q0 25 -18.5 43.5t-42.5 18.5q-25 0 -43.5 -18.5t-18.5 -43.5 v-573z" />
<glyph unicode="p" horiz-adv-x="1484" d="M102 0v1597h820q205 0 358.5 -153.5t153.5 -358.5t-154 -358.5t-358 -153.5h-308v-573h-512z" />
<glyph unicode="q" horiz-adv-x="1382" d="M51 512v573q0 227 199 375q182 137 416 137q233 0 415 -137q199 -150 199 -375v-532q0 -76 -51 -102h102v-451h-665q-233 0 -416 137q-199 150 -199 375zM604 512q0 -25 18.5 -43t43.5 -18t43 18t18 43v573q0 25 -18.5 43.5t-42.5 18.5q-25 0 -43.5 -18.5t-18.5 -43.5 v-573z" />
<glyph unicode="r" horiz-adv-x="1495" d="M102 0v1597h820q205 0 358.5 -153.5t153.5 -358.5q0 -137 -75 -258.5t-194 -191.5l330 -635h-635l-205 717h-123l205 -717h-635z" />
<glyph unicode="s" d="M51 0v451h778v122h-327q-186 0 -318.5 132.5t-132.5 318.5v123q0 186 132 318t319 132h778v-450h-778v-123h327q186 0 318.5 -132t132.5 -319v-122q0 -186 -132 -318.5t-319 -132.5h-778z" />
<glyph unicode="t" horiz-adv-x="1228" d="M51 1147v450h1127v-450h-308v-1147h-512v1147h-307z" />
<glyph unicode="u" d="M51 512v1085h553v-1085q0 -25 18.5 -43t43.5 -18t43 18t18 43v1085h553v-1085q0 -225 -199 -375q-182 -137 -415 -137t-416 137q-199 150 -199 375z" />
<glyph unicode="v" horiz-adv-x="1351" d="M-51 1597h553l205 -716h122l-204 716h778l-471 -1597h-512z" />
<glyph unicode="w" horiz-adv-x="2027" d="M-51 1597h553l471 -1597h-553zM625 1597h553l204 -716h123l-205 716h779l-471 -1597h-512z" />
<glyph unicode="x" d="M0 0l430 799l-430 798h471l195 -360l194 360h471l-430 -798l430 -799h-471l-194 360l-195 -360h-471z" />
<glyph unicode="y" horiz-adv-x="1228" d="M-51 1597h471l194 -454l195 454h471l-430 -1003v-594h-471v594z" />
<glyph unicode="z" horiz-adv-x="1433" d="M102 0v860l717 205v123l-717 -201v610h1229v-860l-717 -205v-122l717 204v-614h-1229z" />
<glyph unicode="{" horiz-adv-x="819" d="M102 0v1597h615v-450h-205v-696h205v-451h-615z" />
<glyph unicode="|" horiz-adv-x="614" d="M102 0v1597h410v-1597h-410z" />
<glyph unicode="}" horiz-adv-x="819" d="M102 0v451h205v696h-205v450h615v-1597h-615z" />
<glyph unicode="&#xa1;" horiz-adv-x="716" d="M102 0l103 1188h307l102 -1188h-512zM205 1290v307h307v-307h-307z" />
<glyph unicode="&#xaa;" horiz-adv-x="1351" d="M-51 0l471 1597h512l471 -1597h-553l-205 717h-123l205 -717h-778z" />
<glyph unicode="&#xb2;" horiz-adv-x="1382" d="M102 0v573q0 186 132.5 318.5t318.5 132.5h328v123h-779v450h779q186 0 318 -132t132 -318v-123q0 -186 -132 -318.5t-318 -132.5h-328v-122h778v-451h-1229z" />
<glyph unicode="&#xb3;" horiz-adv-x="1382" d="M102 0v451h676v122h-471v451h471v123h-676v450h779q184 0 317 -133t133 -317v-123q0 -68 -100 -225q100 -172 100 -348q0 -184 -133 -317.5t-317 -133.5h-779z" />
<glyph unicode="&#xb9;" horiz-adv-x="716" d="M102 0v1597h512v-1597h-512z" />
<glyph unicode="&#xba;" d="M51 512v573q0 225 199 375q182 137 416 137q233 0 415 -137q199 -150 199 -375v-573q0 -225 -199 -375q-182 -137 -415 -137t-416 137q-199 148 -199 375zM604 512q0 -25 18.5 -43t43.5 -18t43 18t18 43v573q0 25 -18.5 43.5t-42.5 18.5q-25 0 -43.5 -18.5t-18.5 -43.5 v-573z" />
<glyph unicode="&#xbf;" d="M51 512q0 236 201 334q186 55 373 112q199 66 194 230h307v-8q0 -342 -196 -473q-53 -37 -129 -62l-123 -41q-74 -35 -74 -92q0 -25 18.5 -43t43.5 -18q53 0 61 61h553q-2 -225 -199 -375q-182 -137 -415 -137t-416 137q-199 150 -199 375zM819 1290v307h307v-307h-307z " />
<glyph unicode="&#x152;" horiz-adv-x="3031" d="M1802 0v1597h1127v-450h-512v-123h512v-451h-512v-122h512v-451h-1127zM51 799q0 324 237.5 561t561.5 237q326 0 562.5 -236.5t236.5 -561.5q0 -326 -236.5 -562.5t-562.5 -236.5q-324 0 -561.5 237.5t-237.5 561.5zM195 793q2 -137 59 -265l336 152q-25 55 -27 115z M238 1030l344 -131q23 57 63 100l-262 258q-96 -98 -145 -227zM391 332q98 -96 227 -146l132 344q-57 23 -101 64zM580 1395l151 -336q55 25 115 26l-2 369q-137 -2 -264 -59zM645 799q0 -80 62.5 -142.5t142.5 -62.5t142.5 62.5t62.5 142.5t-62.5 142.5t-142.5 62.5 t-142.5 -62.5t-62.5 -142.5zM854 512l2 -369q137 2 264 60l-151 334q-54 -25 -115 -25zM950 1067q57 -23 101 -63l258 264q-98 96 -228 145zM1055 598l264 -258q96 98 145 227l-346 131q-22 -57 -63 -100zM1112 918q25 -53 25 -115l368 2q-2 135 -59 264z" />
<glyph unicode="&#x153;" horiz-adv-x="2662" d="M1433 0v1597h1127v-450h-512v-123h512v-451h-512v-122h512v-451h-1127zM51 512v573q0 225 199 375q182 137 416 137q233 0 415 -137q199 -150 199 -375v-573q0 -225 -199 -375q-182 -137 -415 -137t-416 137q-199 148 -199 375zM604 512q0 -25 18.5 -43t43.5 -18t43 18 t18 43v573q0 25 -18.5 43.5t-42.5 18.5q-25 0 -43.5 -18.5t-18.5 -43.5v-573z" />
<glyph unicode="&#x2000;" horiz-adv-x="819" />
<glyph unicode="&#x2001;" horiz-adv-x="1638" />
<glyph unicode="&#x2002;" horiz-adv-x="819" />
<glyph unicode="&#x2003;" horiz-adv-x="1638" />
<glyph unicode="&#x2004;" horiz-adv-x="544" />
<glyph unicode="&#x2005;" horiz-adv-x="409" />
<glyph unicode="&#x2006;" horiz-adv-x="272" />
<glyph unicode="&#x2007;" horiz-adv-x="272" />
<glyph unicode="&#x2008;" horiz-adv-x="204" />
<glyph unicode="&#x2009;" horiz-adv-x="327" />
<glyph unicode="&#x200a;" horiz-adv-x="90" />
<glyph unicode="&#x2013;" horiz-adv-x="1024" d="M205 512v205h614v-205h-614z" />
<glyph unicode="&#x2014;" horiz-adv-x="2048" d="M205 512v205h1638v-205h-1638z" />
<glyph unicode="&#x2018;" horiz-adv-x="512" d="M102 1085v308l205 204v-204h103v-308h-308z" />
<glyph unicode="&#x2019;" horiz-adv-x="512" d="M102 1290v307h308v-307l-205 -205v205h-103z" />
<glyph unicode="&#x201a;" horiz-adv-x="512" d="M102 0v307h308v-307l-205 -205v205h-103z" />
<glyph unicode="&#x201c;" horiz-adv-x="901" d="M102 1085v308l205 204v-204h103v-308h-308zM492 1085v308l204 204v-204h103v-308h-307z" />
<glyph unicode="&#x201d;" horiz-adv-x="901" d="M102 1290v307h308v-307l-205 -205v205h-103zM492 1290v307h307v-307l-205 -205v205h-102z" />
<glyph unicode="&#x201e;" horiz-adv-x="901" d="M102 0v307h308v-307l-205 -205v205h-103zM492 0v307h307v-307l-205 -205v205h-102z" />
<glyph unicode="&#x2026;" horiz-adv-x="1536" d="M1126 0v307h308v-307h-308zM614 0v307h308v-307h-308zM102 0v307h308v-307h-308z" />
<glyph unicode="&#x202f;" horiz-adv-x="327" />
<glyph unicode="&#x205f;" horiz-adv-x="409" />
<glyph unicode="&#x2122;" horiz-adv-x="3256" d="M1178 0l471 1597h553l-471 -1597h-553zM1854 0l471 1597h512l471 -1597h-779l205 717h-123l-204 -717h-553zM51 1147v450h1127v-450h-308v-1147h-512v1147h-307z" />
<glyph unicode="&#xe000;" horiz-adv-x="1595" d="M0 1595h1595v-1595h-1595v1595z" />
<glyph unicode="&#xfb01;" horiz-adv-x="1894" d="M1280 0v1597h512v-1597h-512zM102 0v1597h1024v-450h-512v-123h512v-451h-512v-573h-512z" />
<glyph unicode="&#xfb02;" horiz-adv-x="2457" d="M1280 0v1597h615v-1146h512v-451h-1127zM102 0v1597h1024v-450h-512v-123h512v-451h-512v-573h-512z" />
<glyph unicode="&#xfb03;" horiz-adv-x="3072" d="M2457 0v1597h512v-1597h-512zM1280 0v1597h1024v-450h-512v-123h512v-451h-512v-573h-512zM102 0v1597h1024v-450h-512v-123h512v-451h-512v-573h-512z" />
<glyph unicode="&#xfb04;" horiz-adv-x="3635" d="M2457 0v1597h615v-1146h512v-451h-1127zM1280 0v1597h1024v-450h-512v-123h512v-451h-512v-573h-512zM102 0v1597h1024v-450h-512v-123h512v-451h-512v-573h-512z" />
</font>
</defs>
</svg>
